<?xml version="1.0" standalone="no"?><!DOCTYPE svg PUBLIC "-//W3C//DTD SVG 1.1//EN" "http://www.w3.org/Graphics/SVG/1.1/DTD/svg11.dtd"><svg t="1518020295067" class="icon" style="" viewBox="0 0 1024 1024" version="1.1" xmlns="http://www.w3.org/2000/svg" p-id="3596" xmlns:xlink="http://www.w3.org/1999/xlink" width="128" height="128"><defs><style type="text/css"></style></defs><path d="M512 0c281.6 0 512 230.4 512 512s-230.4 512-512 512S0 793.6 0 512 230.4 0 512 0z" fill="#35E9DE" p-id="3597"></path><path d="M650.24 268.8c-40.96-25.6-89.6-38.4-135.68-38.4-87.04 0-174.08 46.08-225.28 128-25.6 43.52-38.4 92.16-38.4 140.8 0 58.88 20.48 115.2 56.32 161.28h-51.2v84.48h212.48v-212.48H384v87.04c-30.72-33.28-46.08-76.8-46.08-120.32 0-33.28 7.68-66.56 28.16-94.72 33.28-56.32 92.16-87.04 151.04-87.04 30.72 0 61.44 7.68 89.6 25.6 53.76 33.28 81.92 89.6 81.92 151.04 0 33.28-7.68 66.56-28.16 94.72-23.04 40.96-61.44 66.56-99.84 79.36l25.6 81.92c58.88-17.92 112.64-58.88 148.48-115.2 25.6-43.52 38.4-92.16 38.4-140.8 0-89.6-43.52-174.08-122.88-225.28z" fill="#FFFFFF" p-id="3598"></path></svg>