<?xml version="1.0" standalone="no"?><!DOCTYPE svg PUBLIC "-//W3C//DTD SVG 1.1//EN" "http://www.w3.org/Graphics/SVG/1.1/DTD/svg11.dtd"><svg t="1517554334101" class="icon" style="" viewBox="0 0 1024 1024" version="1.1" xmlns="http://www.w3.org/2000/svg" p-id="3343" id="mx_n_1517554334103" xmlns:xlink="http://www.w3.org/1999/xlink" width="128" height="128"><defs><style type="text/css"></style></defs><path d="M1015.31648 169.46517333l-108.93539555-108.93539555c-3.49525333-5.24288-8.73813333-9.32067555-15.14609778-12.23338667-3.49525333-1.74762667-7.57304889-2.33016889-11.65084445-2.33016889h-3.49525333c-4.07779555 0-7.57304889 1.16508445-11.65084444 2.33016889-6.40796445 2.33016889-11.65084445 6.99050667-15.14609778 12.23338667l-108.93539556 108.93539555c-13.39847111 13.39847111-13.39847111 34.95253333 0 48.35100445s34.95253333 13.39847111 48.35100444 0l54.7589689-54.75896889v781.18912c0 18.64135111 15.72864 33.78744889 34.3699911 33.78744889s34.36999111-15.14609778 34.36999112-33.78744889V163.05720889l54.75896888 54.75896889c13.39847111 13.39847111 34.95253333 13.39847111 48.35100445 0s13.39847111-34.95253333 0-48.35100445zM707.15164445 589.47811555c-8.73813333 5.24288-47.76846222 30.29219555-47.76846223 30.29219556l-47.76846222 30.29219556L378.01528889 798.02823111c-4.07779555 2.33016889-16.31118222 2.33016889-20.38897778 0l-233.59943111-147.96572444-47.76846222-30.29219556s-41.94304-26.79694222-47.18592-29.70965333c-19.22389333 15.72864-29.70965333 37.28270222-29.70965333 60.58439111 0 26.79694222 14.56355555 51.26371555 39.6128711 66.99235556L302.2848 884.82702222c18.64135111 12.23338667 41.94304 18.05880889 65.24472889 18.05880889s46.02083555-5.82542222 65.24472889-18.05880889l264.47416889-167.77216c25.04931555-15.72864 39.61287111-40.19541333 39.61287111-66.99235555 0-23.30168889-10.48576-44.85575111-29.70965333-60.58439112z" fill="#ffffff" p-id="3344"></path><path d="M37.81063111 440.92984889L149.65873778 512l47.76846222 30.29219555 47.76846222 30.29219556 56.50659556 36.11761778c18.64135111 12.23338667 41.94304 18.05880889 65.24472889 18.05880889s46.02083555-5.82542222 65.24472888-18.05880889l56.50659556-36.11761778 47.76846222-30.29219556 47.76846222-30.29219555 111.84810667-71.07015111c25.04931555-15.72864 39.61287111-40.19541333 39.61287111-67.57489778 0-26.79694222-14.56355555-51.26371555-39.61287111-66.99235556L432.77425778 139.17297778c-37.86524445-23.88423111-92.62421333-23.88423111-130.48945778 0L37.81063111 306.36259555c-25.04931555 15.72864-39.61287111 40.19541333-39.61287111 66.99235556 0 27.37948445 14.56355555 51.84625778 39.61287111 67.57489778z m319.81568-215.54062222c4.07779555-2.33016889 16.31118222-2.91271111 20.38897778 0l233.59943111 147.96572444-122.33386667 77.47811556-47.76846222 30.29219555-47.76846222 30.29219556-15.72864 9.90321777c-4.07779555 2.33016889-16.31118222 2.33016889-20.38897778 0l-15.72864-9.90321777-47.76846222-30.29219556-47.76846222-30.29219555-122.33386667-77.47811556 233.59943111-147.96572444z" fill="#ffffff" p-id="3345"></path></svg>